<svg width="132" height="54" viewBox="0 0 132 54" fill="none" xmlns="http://www.w3.org/2000/svg">
<g clip-path="url(#clip0_453_245)">
<path d="M11.5745 47.3186C11.1713 47.3123 10.7711 47.3893 10.3995 47.5447C10.0279 47.7001 9.6932 47.9305 9.41637 48.2212C8.85647 48.8145 8.54492 49.5965 8.54492 50.4089C8.54492 51.2212 8.85647 52.0032 9.41637 52.5965C9.699 52.8823 10.0363 53.1094 10.4086 53.2644C10.7808 53.4194 11.1806 53.4993 11.5844 53.4993C11.9882 53.4993 12.3879 53.4194 12.7602 53.2644C13.1325 53.1094 13.4698 52.8823 13.7524 52.5965C14.3119 52.003 14.6234 51.2211 14.6234 50.4089C14.6234 49.5967 14.3119 48.8147 13.7524 48.2212C13.4729 47.9295 13.1354 47.6986 12.761 47.5432C12.3866 47.3878 11.9839 47.3113 11.5781 47.3186" fill="#222222" fill-opacity="0.8"/>
<path d="M18.8016 47.3185C18.3958 47.3114 17.9931 47.3879 17.6187 47.5433C17.2443 47.6987 16.9068 47.9296 16.6273 48.2212C16.0674 48.8145 15.7559 49.5965 15.7559 50.4089C15.7559 51.2212 16.0674 52.0032 16.6273 52.5965C16.91 52.8822 17.2472 53.1092 17.6195 53.2642C17.9918 53.4191 18.3915 53.4989 18.7953 53.4989C19.1991 53.4989 19.5989 53.4191 19.9711 53.2642C20.3434 53.1092 20.6806 52.8822 20.9633 52.5965C21.5347 52.009 21.854 51.2248 21.854 50.4089C21.854 49.5929 21.5347 48.8087 20.9633 48.2212C20.6865 47.9305 20.3514 47.7002 19.9798 47.5448C19.6082 47.3894 19.208 47.3123 18.8048 47.3185" fill="#222222" fill-opacity="0.8"/>
<path d="M47.5794 21.2463C48.0018 21.2502 48.4209 21.1705 48.8119 21.0121C49.2029 20.8537 49.5581 20.6196 49.8567 20.3235C50.1554 20.0275 50.3914 19.6754 50.5512 19.2879C50.711 18.9004 50.7912 18.4852 50.7872 18.0666C50.7957 17.6533 50.7174 17.2427 50.5571 16.861C50.3968 16.4793 50.1582 16.1348 49.8564 15.8495C49.5577 15.5549 49.2019 15.3232 48.8107 15.1681C48.4195 15.0129 48.0007 14.9377 47.5794 14.9468C47.1646 14.9417 46.7528 15.019 46.3686 15.174C45.9843 15.329 45.6355 15.5586 45.3422 15.8493C45.0488 16.1401 44.8171 16.486 44.6607 16.8668C44.5043 17.2476 44.4263 17.6555 44.4314 18.0666C44.4222 18.4843 44.4981 18.8995 44.6548 19.2874C44.8114 19.6752 45.0455 20.0277 45.343 20.3237C45.6325 20.6208 45.9802 20.856 46.365 21.0147C46.7499 21.1734 47.1627 21.2522 47.5794 21.2463Z" fill="#222222" fill-opacity="0.8"/>
<path d="M108.048 27.0128H101.595C101.934 29.4099 102.106 31.8272 102.11 34.2477C102.102 35.6969 102.016 37.1446 101.853 38.5847H100.961C99.3107 38.5847 98.2217 38.3753 97.6945 37.9566C97.1672 37.5378 96.9031 36.6865 96.9021 35.4026V27.0128H90.7811V34.6021C90.7811 37.4657 89.8902 38.8978 88.1081 38.8984C87.7407 38.938 87.3696 38.8744 87.0369 38.7149C86.7042 38.5555 86.4235 38.3065 86.2268 37.9965C85.8026 36.904 85.6268 35.7321 85.712 34.5646V27.0854H79.2568V33.9141C79.2568 35.7721 79.0194 37.0225 78.5442 37.6653C78.2215 38.0069 77.8219 38.2684 77.3782 38.4286C76.9345 38.5888 76.4592 38.6431 75.9904 38.5871H71.4558C71.041 32.6459 68.5815 28.3911 63.9159 25.9193L93.8398 7.83233V0.5L55.7937 24.1627V28.7734C61.7728 29.9908 64.9077 33.2612 65.1987 38.5847H50.8237V24.6727H44.3693V38.5847H36.4877V33.0713C36.4877 30.1411 35.8214 27.9633 34.4888 26.5379C32.9569 24.9289 30.4491 24.1244 26.965 24.1244C24.0558 24.1007 21.1511 24.357 18.2918 24.8898V38.5855H16.0141C12.5429 38.5855 10.0748 37.971 8.60951 36.7418C6.15309 34.6795 6.69357 31.0504 6.69357 28.2083V24.6727H0V31.5205C0 32.0944 0.0286792 32.6443 0.0802238 33.1766C0.759431 40.1027 5.85381 43.5668 15.3632 43.569H24.4521V29.3042C25.1571 29.1721 25.8728 29.1061 26.5903 29.107C28.0399 29.107 29.03 29.4406 29.5605 30.1079C30.0754 30.7623 30.3328 31.9529 30.3328 33.6795V43.569H75.8937C78.6787 43.569 80.4803 42.699 81.2985 40.9591C82.0121 42.9081 83.86 43.8826 86.8426 43.8826C89.9031 43.8826 91.9227 42.9475 92.9015 41.0772C93.9319 42.7384 96.2554 43.569 99.8715 43.569H107.969C108.328 40.3502 108.507 37.1142 108.504 33.8758C108.507 31.5803 108.355 29.2872 108.048 27.012" fill="#222222" fill-opacity="0.8"/>
<path d="M93.8438 0.5V7.83074L132.003 31.1885V24.1539L93.8438 0.5Z" fill="#222222" fill-opacity="0.8"/>
</g>
<defs>
<clipPath id="clip0_453_245">
<rect width="132" height="53" fill="white" transform="translate(0 0.5)"/>
</clipPath>
</defs>
</svg>
